<svg width="16" height="16" viewBox="0 0 16 16" fill="none" xmlns="http://www.w3.org/2000/svg">
<path d="M13 10C12.4 10 11.9 10.2 11.4 10.5L9 8.5V5.8C10.2 5.4 11 4.3 11 3C11 1.3 9.7 0 8 0C6.3 0 5 1.3 5 3C5 4.3 5.8 5.4 7 5.8V8.5L4.6 10.4C4.1 10.2 3.6 10 3 10C1.3 10 0 11.3 0 13C0 14.7 1.3 16 3 16C4.7 16 6 14.7 6 13C6 12.7 5.9 12.3 5.8 12L8 10.3L10.2 12C10.1 12.3 10 12.6 10 13C10 14.7 11.3 16 13 16C14.7 16 16 14.7 16 13C16 11.3 14.7 10 13 10ZM3 14C2.4 14 2 13.6 2 13C2 12.4 2.4 12 3 12C3.6 12 4 12.4 4 13C4 13.6 3.6 14 3 14ZM8 4C7.4 4 7 3.6 7 3C7 2.4 7.4 2 8 2C8.6 2 9 2.4 9 3C9 3.6 8.6 4 8 4ZM13 14C12.4 14 12 13.6 12 13C12 12.4 12.4 12 13 12C13.6 12 14 12.4 14 13C14 13.6 13.6 14 13 14Z" fill="#FFFFFF"/>
</svg>
