<svg width="30" height="28" viewBox="0 0 30 28" fill="none" xmlns="http://www.w3.org/2000/svg">
<path fill-rule="evenodd" clip-rule="evenodd" d="M21.5838 14.9907C22.0719 14.9245 22.4481 14.5061 22.4481 13.9999C22.4481 13.4476 22.0003 12.9999 21.4481 12.9999L12.9726 12.9999L16.2759 9.71114L16.373 9.59919C16.6643 9.20833 16.6332 8.65271 16.2789 8.29693C15.8892 7.90558 15.2561 7.90423 14.8647 8.29392L9.84606 13.2913L9.84346 13.2943C9.81073 13.3271 9.78027 13.3623 9.75234 13.3994L9.74874 13.4036C9.45677 13.7956 9.48921 14.3531 9.84606 14.7085L14.8647 19.7058L14.9771 19.8024C15.3692 20.092 15.9247 20.0586 16.2789 19.7028L16.3755 19.5904C16.6652 19.1983 16.6317 18.6429 16.2759 18.2886L12.9745 14.9999L21.4481 14.9999L21.5838 14.9907Z" fill="#FFF"/>
<path opacity="0.1" fill-rule="evenodd" clip-rule="evenodd" d="M29.3334 8.2212L29.3334 19.7799C29.3334 24.318 26.0943 27.3332 21.4454 27.3332L10.5547 27.3332C5.91065 27.3332 2.66671 24.3091 2.66671 19.7799L2.66671 8.2212C2.66671 3.68282 5.90604 0.666534 10.5547 0.666534L21.4454 0.666534C26.094 0.666534 29.3334 3.68282 29.3334 8.2212ZM27.3334 19.7799L27.3334 8.2212C27.3334 4.82053 25.0201 2.66653 21.4454 2.66653L10.5547 2.66653C6.97999 2.66653 4.66671 4.82053 4.66671 8.2212L4.66671 19.7799C4.66671 23.1719 6.98508 25.3332 10.5547 25.3332L21.4454 25.3332C25.0205 25.3332 27.3334 23.1802 27.3334 19.7799Z" fill="#FFF"/>
</svg>
