<svg width="29" height="29" viewBox="0 0 29 29" fill="none" xmlns="http://www.w3.org/2000/svg">
<rect width="29" height="29" rx="5" fill="#4CD964"/>
<path d="M10.8572 21.8571C11.2911 21.8571 11.6429 21.5054 11.6429 21.0714C11.6429 20.6375 11.2911 20.2857 10.8572 20.2857C10.4232 20.2857 10.0714 20.6375 10.0714 21.0714C10.0714 21.5054 10.4232 21.8571 10.8572 21.8571Z" stroke="white" stroke-width="2" stroke-linecap="round" stroke-linejoin="round"/>
<path d="M19.5 21.8571C19.9339 21.8571 20.2857 21.5054 20.2857 21.0714C20.2857 20.6375 19.9339 20.2857 19.5 20.2857C19.0661 20.2857 18.7143 20.6375 18.7143 21.0714C18.7143 21.5054 19.0661 21.8571 19.5 21.8571Z" stroke="white" stroke-width="2" stroke-linecap="round" stroke-linejoin="round"/>
<path d="M4.57144 5.35714H7.7143L9.82001 15.8779C9.89186 16.2396 10.0887 16.5645 10.3759 16.7958C10.6632 17.0271 11.0227 17.1499 11.3914 17.1429H19.0286C19.3973 17.1499 19.7568 17.0271 20.0441 16.7958C20.3314 16.5645 20.5282 16.2396 20.6 15.8779L21.8572 9.28571H8.50001" stroke="white" stroke-width="2" stroke-linecap="round" stroke-linejoin="round"/>
</svg>
